<svg xmlns="http://www.w3.org/2000/svg" style="display:none">
  <symbol id="icon-home" viewBox="0 0 24 24">
    <path d="M3 11.5L12 4l9 7.5"></path>
    <path d="M5 10.5V20h5v-5h4v5h5V10.5"></path>
  </symbol>
  <symbol id="icon-library" viewBox="0 0 24 24">
    <rect x="4" y="5" width="16" height="4" rx="1"></rect>
    <rect x="4" y="10" width="16" height="4" rx="1"></rect>
    <rect x="4" y="15" width="12" height="4" rx="1"></rect>
  </symbol>
  <symbol id="icon-landing" viewBox="0 0 24 24">
    <rect x="4" y="4" width="16" height="16" rx="2"></rect>
    <path d="M4 9h16M10 9v11"></path>
  </symbol>
  <symbol id="icon-grid" viewBox="0 0 24 24">
    <rect x="4" y="4" width="7" height="7" rx="1"></rect>
    <rect x="13" y="4" width="7" height="7" rx="1"></rect>
    <rect x="4" y="13" width="7" height="7" rx="1"></rect>
    <rect x="13" y="13" width="7" height="7" rx="1"></rect>
  </symbol>
  <symbol id="icon-leads" viewBox="0 0 24 24">
    <rect x="3" y="6" width="18" height="12" rx="2"></rect>
    <circle cx="8" cy="11" r="2"></circle>
    <path d="M12 10h6M12 14h6"></path>
  </symbol>
  <symbol id="icon-card" viewBox="0 0 24 24">
    <rect x="3" y="6" width="18" height="12" rx="2"></rect>
    <path d="M3 10h18M6 15h5"></path>
  </symbol>
  <symbol id="icon-posts" viewBox="0 0 24 24">
    <path d="M3 12h4l8-4v8l-8-4H3z"></path>
    <path d="M7 14v4"></path>
  </symbol>
  <symbol id="icon-calendar" viewBox="0 0 24 24">
    <rect x="3" y="5" width="18" height="16" rx="2"></rect>
    <path d="M7 3v4M17 3v4M3 9h18"></path>
  </symbol>
  <symbol id="icon-pricing" viewBox="0 0 24 24">
    <path d="M3 12l9 9 9-9-9-9H7z"></path>
    <circle cx="9" cy="9" r="1.5"></circle>
  </symbol>
  <symbol id="icon-lock" viewBox="0 0 24 24">
    <rect x="5" y="11" width="14" height="9" rx="2"></rect>
    <path d="M8 11V8a4 4 0 0 1 8 0v3"></path>
  </symbol>
  <symbol id="icon-copy" viewBox="0 0 24 24">
    <rect x="9" y="9" width="10" height="10" rx="2"></rect>
    <rect x="5" y="5" width="10" height="10" rx="2"></rect>
  </symbol>
  <symbol id="icon-trash" viewBox="0 0 24 24">
    <path d="M4 7h16"></path>
    <path d="M9 7V5h6v2"></path>
    <rect x="6" y="7" width="12" height="13" rx="2"></rect>
    <path d="M10 11v6M14 11v6"></path>
  </symbol>
  <symbol id="icon-globe" viewBox="0 0 24 24">
    <circle cx="12" cy="12" r="9"></circle>
    <path d="M3 12h18"></path>
    <path d="M12 3a14 14 0 0 0 0 18"></path>
    <path d="M12 3a14 14 0 0 1 0 18"></path>
  </symbol>
  <symbol id="icon-video" viewBox="0 0 24 24">
    <rect x="3" y="6" width="14" height="12" rx="2"></rect>
    <path d="M17 10l4-2v8l-4-2z"></path>
  </symbol>
  <symbol id="icon-check" viewBox="0 0 24 24">
    <path d="M5 12l4 4 10-10"></path>
  </symbol>
  <symbol id="icon-check-circle" viewBox="0 0 24 24">
    <circle cx="12" cy="12" r="9"></circle>
    <path d="M8 12l3 3 5-5"></path>
  </symbol>
  <symbol id="icon-message" viewBox="0 0 24 24">
    <path d="M4 6h16v10H8l-4 4z"></path>
  </symbol>
  <symbol id="icon-pencil" viewBox="0 0 24 24">
    <path d="M3 17l4 4 14-14-4-4z"></path>
    <path d="M12 8l4 4"></path>
  </symbol>
  <symbol id="icon-image" viewBox="0 0 24 24">
    <rect x="3" y="5" width="18" height="14" rx="2"></rect>
    <circle cx="9" cy="9" r="1.5"></circle>
    <path d="M7 15l3-3 5 5 3-3 3 3"></path>
  </symbol>
  <symbol id="icon-upload" viewBox="0 0 24 24">
    <path d="M12 3v12"></path>
    <path d="M8 7l4-4 4 4"></path>
    <path d="M4 19h16"></path>
  </symbol>
  <symbol id="icon-rocket" viewBox="0 0 24 24">
    <path d="M14 4l6 6-8 8-6-6z"></path>
    <path d="M7 17l-3 3"></path>
    <path d="M10 7l7 7"></path>
  </symbol>
  <symbol id="icon-ban" viewBox="0 0 24 24">
    <circle cx="12" cy="12" r="9"></circle>
    <path d="M7 7l10 10"></path>
  </symbol>
  <symbol id="icon-clock" viewBox="0 0 24 24">
    <circle cx="12" cy="12" r="9"></circle>
    <path d="M12 7v6l4 2"></path>
  </symbol>
  <symbol id="icon-heart" viewBox="0 0 24 24">
    <path d="M12 20s-6-4.3-8.5-8.3A5 5 0 0 1 12 6a5 5 0 0 1 8.5 5.7C18 15.7 12 20 12 20z"></path>
  </symbol>
  <symbol id="icon-x" viewBox="0 0 24 24">
    <path d="M6 6l12 12M18 6l-12 12"></path>
  </symbol>
  <symbol id="icon-chevron-left" viewBox="0 0 24 24">
    <polyline points="15 18 9 12 15 6" fill="none" stroke="currentColor" stroke-width="2" stroke-linecap="round" stroke-linejoin="round"></polyline>
  </symbol>
  <symbol id="icon-chevron-right" viewBox="0 0 24 24">
    <polyline points="9 18 15 12 9 6" fill="none" stroke="currentColor" stroke-width="2" stroke-linecap="round" stroke-linejoin="round"></polyline>
  </symbol>
  <symbol id="icon-download" viewBox="0 0 24 24">
    <path d="M12 3v12"></path>
    <path d="M8 11l4 4 4-4"></path>
    <path d="M4 19h16"></path>
  </symbol>
  <symbol id="icon-undo" viewBox="0 0 24 24">
    <path d="M3 10h11a5 5 0 0 1 0 10H8"></path>
    <path d="M7 6l-4 4 4 4"></path>
  </symbol>
  <symbol id="icon-film" viewBox="0 0 24 24">
    <rect x="2" y="2" width="20" height="20" rx="2.18" ry="2.18"></rect>
    <path d="M7 2v20"></path>
    <path d="M17 2v20"></path>
    <path d="M2 12h20"></path>
    <path d="M2 7h5"></path>
    <path d="M2 17h5"></path>
    <path d="M17 17h5"></path>
    <path d="M17 7h5"></path>
  </symbol>
  <symbol id="icon-send" viewBox="0 0 24 24">
    <path d="M5 12h14"></path>
    <path d="M12 5l7 7-7 7"></path>
  </symbol>
  <symbol id="icon-book" viewBox="0 0 24 24">
    <path d="M3 12l9 9 9-9-9-9H7z"></path>
    <circle cx="9" cy="9" r="1.5"></circle>
  </symbol>
</svg>
